<?xml version="1.0" standalone="no"?>
<!DOCTYPE svg PUBLIC "-//W3C//DTD SVG 20010904//EN" "http://www.w3.org/TR/2001/REC-SVG-20010904/DTD/svg10.dtd">
<svg version="1.0" xmlns="http://www.w3.org/2000/svg" width="1024" height="682" viewBox="-3.072 -4.096 3084.288 2058.24" preserveAspectRatio="xMidYMid meet">
<title>CC</title>
<metadata>
<desc id="created-by">Julian Fiander</desc>
<desc id="generated-at">20200216.1756-0500</desc>
<desc id="trademark-desc">This image is a registered trademark of United States Power Squadrons.</desc>
<desc id="trademark-link">https://www.usps.org/images/secretary/itcom/trademark.pdf</desc>
</metadata><path d="M 0 0
  l 3072 0
  l 0 2048
  l -3072 0
  l 0 -2048 z
" fill="#012169" />
<g transform="translate(-354, 236)">
  <g transform="rotate(-45, 1536, 1024)">
<path d="M 1536 256
l 80 184
l -40 -24
l 0 1376
l -80 0
l 0 -1376
l -40 24
l 80 -184
" fill="#FFFFFF" />
<path d="M 1296 784
l 480 0
l 0 80
l -480 0
l 0 -80
" fill="#FFFFFF" />
<path d="M 1296 785
l 0 -464
l 120 168
l -40 0
l 0 296
" fill="#FFFFFF" />
<path d="M 1776 785
l 0 -464
l -120 168
l 40 0
l 0 296
" fill="#FFFFFF" />
<path d="M 1400 944
l 273 0
l 0 80
l -273 0
l 0 -80
" fill="#FFFFFF" />
</g>
</g>

<path d="M 1536 256
l 80 184
l -40 -24
l 0 1376
l -80 0
l 0 -1376
l -40 24
l 80 -184
" fill="#FFFFFF" />
<path d="M 1296 784
l 480 0
l 0 80
l -480 0
l 0 -80
" fill="#FFFFFF" />
<path d="M 1296 785
l 0 -464
l 120 168
l -40 0
l 0 296
" fill="#FFFFFF" />
<path d="M 1776 785
l 0 -464
l -120 168
l 40 0
l 0 296
" fill="#FFFFFF" />
<path d="M 1400 944
l 273 0
l 0 80
l -273 0
l 0 -80
" fill="#FFFFFF" />

<g transform="translate(354, 236)">
  <g transform="rotate(45, 1536, 1024)">
<path d="M 1536 256
l 80 184
l -40 -24
l 0 1376
l -80 0
l 0 -1376
l -40 24
l 80 -184
" fill="#FFFFFF" />
<path d="M 1296 784
l 480 0
l 0 80
l -480 0
l 0 -80
" fill="#FFFFFF" />
<path d="M 1296 785
l 0 -464
l 120 168
l -40 0
l 0 296
" fill="#FFFFFF" />
<path d="M 1776 785
l 0 -464
l -120 168
l 40 0
l 0 296
" fill="#FFFFFF" />
<path d="M 1400 944
l 273 0
l 0 80
l -273 0
l 0 -80
" fill="#FFFFFF" />
</g>
</g>
</svg>
